<mxfile host="app.diagrams.net" agent="Mozilla/5.0 (Windows NT 10.0; Win64; x64) AppleWebKit/537.36 (KHTML, like Gecko) Chrome/134.0.0.0 Safari/537.36 OPR/119.0.0.0" version="27.1.4">
  <diagram id="C5RBs43oDa-KdzZeNtuy" name="Page-1">
    <mxGraphModel dx="1902" dy="1776" grid="1" gridSize="10" guides="1" tooltips="1" connect="1" arrows="1" fold="1" page="1" pageScale="1" pageWidth="827" pageHeight="1169" background="light-dark(#FFFFFF,#FFFFFF)" math="0" shadow="0">
      <root>
        <mxCell id="WIyWlLk6GJQsqaUBKTNV-0" />
        <mxCell id="WIyWlLk6GJQsqaUBKTNV-1" parent="WIyWlLk6GJQsqaUBKTNV-0" />
        <mxCell id="zkfFHV4jXpPFQw0GAbJ--0" value="Customer" style="swimlane;fontStyle=2;align=center;verticalAlign=top;childLayout=stackLayout;horizontal=1;startSize=26;horizontalStack=0;resizeParent=1;resizeLast=0;collapsible=1;marginBottom=0;rounded=0;shadow=0;strokeWidth=1;fillColor=light-dark(#FF8000,#FF8000);strokeColor=light-dark(#006EAF,#000000);fontColor=#ffffff;" parent="WIyWlLk6GJQsqaUBKTNV-1" vertex="1">
          <mxGeometry x="-240" y="-270" width="320" height="314" as="geometry">
            <mxRectangle x="230" y="140" width="160" height="26" as="alternateBounds" />
          </mxGeometry>
        </mxCell>
        <mxCell id="zkfFHV4jXpPFQw0GAbJ--5" value="Methods:&#xa;&#xa;Buy product()&#xa;&#xa;Navigate in the app()&#xa;&#xa;Leave reviews()&#xa;&#xa;Chat with the seller()&#xa;&#xa;" style="text;align=left;verticalAlign=top;spacingLeft=4;spacingRight=4;overflow=hidden;rotatable=0;points=[[0,0.5],[1,0.5]];portConstraint=eastwest;fillColor=light-dark(#FFB366,#FFB366);strokeColor=light-dark(#006EAF,#000000);fontColor=light-dark(#000000,#000000);" parent="zkfFHV4jXpPFQw0GAbJ--0" vertex="1">
          <mxGeometry y="26" width="320" height="144" as="geometry" />
        </mxCell>
        <mxCell id="zkfFHV4jXpPFQw0GAbJ--1" value="Attributes:&#xa;&#xa;Profile customer&#xa;&#xa;Purchase history&#xa;&#xa;Associated payment method&#xa;&#xa;&#xa;&#xa;&#xa;" style="text;align=left;verticalAlign=top;spacingLeft=4;spacingRight=4;overflow=hidden;rotatable=0;points=[[0,0.5],[1,0.5]];portConstraint=eastwest;fillColor=light-dark(#FFB366,#FFB366);strokeColor=light-dark(#006EAF,#000000);" parent="zkfFHV4jXpPFQw0GAbJ--0" vertex="1">
          <mxGeometry y="170" width="320" height="144" as="geometry" />
        </mxCell>
        <mxCell id="om2x-9I_dzPGqy-Gi9u0-2" value="" style="endArrow=classic;startArrow=classic;html=1;rounded=0;exitX=1;exitY=0.112;exitDx=0;exitDy=0;exitPerimeter=0;strokeColor=light-dark(#006EAF,#000000);" parent="zkfFHV4jXpPFQw0GAbJ--0" source="zkfFHV4jXpPFQw0GAbJ--1" target="zkfFHV4jXpPFQw0GAbJ--5" edge="1">
          <mxGeometry width="50" height="50" relative="1" as="geometry">
            <mxPoint x="530" y="72" as="sourcePoint" />
            <mxPoint x="830" y="181" as="targetPoint" />
            <Array as="points" />
          </mxGeometry>
        </mxCell>
        <mxCell id="zkfFHV4jXpPFQw0GAbJ--6" value="Product" style="swimlane;fontStyle=0;align=left;verticalAlign=top;childLayout=stackLayout;horizontal=1;startSize=26;horizontalStack=0;resizeParent=1;resizeLast=0;collapsible=1;marginBottom=0;rounded=0;shadow=0;strokeWidth=1;fillColor=light-dark(#FF8000,#FF8000);fontColor=#ffffff;strokeColor=light-dark(#006EAF,#000000);" parent="WIyWlLk6GJQsqaUBKTNV-1" vertex="1">
          <mxGeometry x="-504" y="210" width="364" height="320" as="geometry">
            <mxRectangle x="130" y="380" width="160" height="26" as="alternateBounds" />
          </mxGeometry>
        </mxCell>
        <mxCell id="zkfFHV4jXpPFQw0GAbJ--7" value="Attributes:&#xa;&#xa;Name&#xa;&#xa;Image&#xa;&#xa;Price&#xa;&#xa;Seller Name&#xa;&#xa;Detailed description&#xa;&#xa;Stock &#xa;&#xa;Category&#xa;&#xa;Discount&#xa;&#xa;Reviews received&#xa;&#xa;&#xa;&#xa;&#xa;" style="text;align=left;verticalAlign=top;spacingLeft=4;spacingRight=4;overflow=hidden;rotatable=0;points=[[0,0.5],[1,0.5]];portConstraint=eastwest;fillColor=light-dark(#FFB366,#FFB366);strokeColor=light-dark(#006EAF,#000000);" parent="zkfFHV4jXpPFQw0GAbJ--6" vertex="1">
          <mxGeometry y="26" width="364" height="290" as="geometry" />
        </mxCell>
        <mxCell id="zkfFHV4jXpPFQw0GAbJ--13" value="Payment" style="swimlane;fontStyle=0;align=center;verticalAlign=top;childLayout=stackLayout;horizontal=1;startSize=26;horizontalStack=0;resizeParent=1;resizeLast=0;collapsible=1;marginBottom=0;rounded=0;shadow=0;strokeWidth=1;fillColor=light-dark(#FF8000,#FF8000);fontColor=#ffffff;strokeColor=light-dark(#006EAF,#000000);" parent="WIyWlLk6GJQsqaUBKTNV-1" vertex="1">
          <mxGeometry x="240" y="246" width="320" height="274" as="geometry">
            <mxRectangle x="340" y="380" width="170" height="26" as="alternateBounds" />
          </mxGeometry>
        </mxCell>
        <mxCell id="zkfFHV4jXpPFQw0GAbJ--14" value="Attributes:&#xa;&#xa;Payment ID &#xa;&#xa;Date of payment&#xa;&#xa;Discount coupon&#xa;&#xa;Card number&#xa;&#xa;Security Code" style="text;align=left;verticalAlign=top;spacingLeft=4;spacingRight=4;overflow=hidden;rotatable=0;points=[[0,0.5],[1,0.5]];portConstraint=eastwest;fillColor=light-dark(#FFB366,#FFB366);strokeColor=light-dark(#000000,#000000);" parent="zkfFHV4jXpPFQw0GAbJ--13" vertex="1">
          <mxGeometry y="26" width="320" height="244" as="geometry" />
        </mxCell>
        <mxCell id="zkfFHV4jXpPFQw0GAbJ--17" value="Seller" style="swimlane;fontStyle=0;align=center;verticalAlign=top;childLayout=stackLayout;horizontal=1;startSize=26;horizontalStack=0;resizeParent=1;resizeLast=0;collapsible=1;marginBottom=0;rounded=0;shadow=0;strokeWidth=1;fillColor=light-dark(#FF8000,#FF8000);strokeColor=light-dark(#006EAF,#000000);fontColor=#ffffff;" parent="WIyWlLk6GJQsqaUBKTNV-1" vertex="1">
          <mxGeometry x="750" y="-380" width="540" height="594" as="geometry">
            <mxRectangle x="550" y="140" width="160" height="26" as="alternateBounds" />
          </mxGeometry>
        </mxCell>
        <mxCell id="gZKawcKhAUTIa8w26TKA-3" value="Attributes:&lt;div&gt;&lt;br&gt;&lt;/div&gt;&lt;div&gt;&lt;br&gt;&lt;/div&gt;&lt;div&gt;Profile Seller&lt;/div&gt;&lt;div&gt;&lt;br&gt;&lt;/div&gt;&lt;div&gt;&lt;br&gt;&lt;/div&gt;&lt;div&gt;&lt;span style=&quot;text-wrap-mode: nowrap;&quot;&gt;Bank account number to&lt;/span&gt;&lt;br style=&quot;padding: 0px; margin: 0px; text-wrap-mode: nowrap;&quot;&gt;&lt;span style=&quot;text-wrap-mode: nowrap;&quot;&gt;&amp;nbsp;deposit earnings&lt;/span&gt;&lt;/div&gt;&lt;div&gt;&lt;br&gt;&lt;/div&gt;&lt;div&gt;&lt;span style=&quot;text-wrap-mode: nowrap;&quot;&gt;Bank associated&amp;nbsp;&lt;/span&gt;&lt;br style=&quot;padding: 0px; margin: 0px; text-wrap-mode: nowrap;&quot;&gt;&lt;span style=&quot;text-wrap-mode: nowrap;&quot;&gt;with the account number&lt;/span&gt;&lt;/div&gt;&lt;div&gt;&lt;span style=&quot;text-wrap-mode: nowrap;&quot;&gt;&lt;br&gt;&lt;/span&gt;&lt;/div&gt;&lt;div&gt;Sales made&lt;span style=&quot;text-wrap-mode: nowrap;&quot;&gt;&lt;/span&gt;&lt;/div&gt;&lt;div&gt;&lt;br&gt;&lt;/div&gt;&lt;div&gt;&lt;span style=&quot;text-wrap-mode: nowrap;&quot;&gt;Product List&lt;/span&gt;&lt;/div&gt;&lt;div&gt;&lt;span style=&quot;text-wrap-mode: nowrap;&quot;&gt;&lt;br&gt;&lt;/span&gt;&lt;/div&gt;&lt;div&gt;&lt;span style=&quot;text-wrap-mode: nowrap;&quot;&gt;Seller ID&lt;/span&gt;&lt;/div&gt;" style="text;html=1;align=left;verticalAlign=middle;whiteSpace=wrap;rounded=0;fillColor=light-dark(#FFB366,#FFB366);strokeColor=light-dark(#000000,#000000);" parent="zkfFHV4jXpPFQw0GAbJ--17" vertex="1">
          <mxGeometry y="26" width="540" height="284" as="geometry" />
        </mxCell>
        <mxCell id="hMOmFAutKiFjXkRdDynN-70" value="&lt;div&gt;Methods:&lt;/div&gt;&lt;div&gt;&lt;br&gt;&lt;/div&gt;Add product()&amp;nbsp;&lt;div&gt;&lt;br&gt;View sales()&lt;/div&gt;&lt;div&gt;&lt;br&gt;Start chat with customer()&lt;/div&gt;&lt;div&gt;&lt;br&gt;&lt;/div&gt;&lt;div&gt;&lt;span style=&quot;background-color: transparent; color: light-dark(rgb(0, 0, 0), rgb(255, 255, 255));&quot;&gt;Update shipping status()&lt;/span&gt;&lt;/div&gt;&lt;div&gt;&lt;span style=&quot;background-color: transparent; color: light-dark(rgb(0, 0, 0), rgb(255, 255, 255));&quot;&gt;&lt;br&gt;&lt;/span&gt;&lt;/div&gt;&lt;div&gt;&lt;span style=&quot;background-color: transparent; color: light-dark(rgb(0, 0, 0), rgb(255, 255, 255));&quot;&gt;Assign Price()&amp;nbsp;&lt;/span&gt;&lt;/div&gt;&lt;div&gt;&lt;br&gt;&lt;/div&gt;&lt;div&gt;Assign descrpcion of the product()&lt;/div&gt;&lt;div&gt;&lt;br&gt;&lt;/div&gt;&lt;div&gt;Assign name of product()&lt;/div&gt;&lt;div&gt;&lt;br&gt;&lt;/div&gt;&lt;div&gt;Assign image of product()&lt;/div&gt;&lt;div&gt;&lt;span style=&quot;background-color: transparent; color: light-dark(rgb(0, 0, 0), rgb(255, 255, 255));&quot;&gt;&lt;br&gt;&lt;/span&gt;&lt;/div&gt;" style="text;whiteSpace=wrap;html=1;fillColor=light-dark(#FFB366,#FFB366);strokeColor=light-dark(#000000,#000000);" parent="zkfFHV4jXpPFQw0GAbJ--17" vertex="1">
          <mxGeometry y="310" width="540" height="284" as="geometry" />
        </mxCell>
        <mxCell id="hMOmFAutKiFjXkRdDynN-59" value="Register" style="swimlane;fontStyle=0;align=center;verticalAlign=top;childLayout=stackLayout;horizontal=1;startSize=26;horizontalStack=0;resizeParent=1;resizeLast=0;collapsible=1;marginBottom=0;rounded=0;shadow=0;strokeWidth=1;fillColor=light-dark(#FF8000,#FF8000);fontColor=#ffffff;strokeColor=light-dark(#006EAF,#000000);" parent="WIyWlLk6GJQsqaUBKTNV-1" vertex="1">
          <mxGeometry x="175" y="-500" width="310" height="670" as="geometry">
            <mxRectangle x="340" y="380" width="170" height="26" as="alternateBounds" />
          </mxGeometry>
        </mxCell>
        <mxCell id="hMOmFAutKiFjXkRdDynN-60" value="Attributes:&#xa;&#xa;+ Name: String&#xa;&#xa;+ Age: Integer&#xa;&#xa;+ Number of phone: Integer&#xa;&#xa;+ Country of residence: String&#xa;&#xa;+ Residence Adress: String&#xa;&#xa;+ Email: String&#xa;&#xa;- Password: String&#xa;&#xa;" style="text;align=left;verticalAlign=top;spacingLeft=4;spacingRight=4;overflow=hidden;rotatable=0;points=[[0,0.5],[1,0.5]];portConstraint=eastwest;fillColor=light-dark(#FFB366,#FFB366);strokeColor=light-dark(#000000,#000000);" parent="hMOmFAutKiFjXkRdDynN-59" vertex="1">
          <mxGeometry y="26" width="310" height="254" as="geometry" />
        </mxCell>
        <mxCell id="hMOmFAutKiFjXkRdDynN-62" value="Methods:&lt;div&gt;&lt;br&gt;&lt;/div&gt;&lt;div&gt;&lt;div&gt;Get Name(): String&lt;/div&gt;&lt;div&gt;&lt;br&gt;&lt;/div&gt;&lt;div&gt;assign age()&lt;/div&gt;&lt;div&gt;&lt;br&gt;&lt;/div&gt;&lt;div&gt;assign number()&lt;/div&gt;&lt;div&gt;&lt;br&gt;&lt;/div&gt;&lt;div&gt;assign city()&lt;/div&gt;&lt;div&gt;&lt;br&gt;&lt;/div&gt;&lt;div&gt;assign email()&lt;/div&gt;&lt;div&gt;&lt;br&gt;&lt;/div&gt;&lt;div&gt;assign password()&lt;/div&gt;&lt;div&gt;&lt;br&gt;&lt;/div&gt;&lt;div&gt;create account()&lt;/div&gt;&lt;div&gt;&lt;br&gt;&lt;/div&gt;&lt;div&gt;validate email()&lt;/div&gt;&lt;div&gt;&lt;br&gt;&lt;/div&gt;&lt;div&gt;validate password()&lt;/div&gt;&lt;div&gt;&lt;br&gt;&lt;/div&gt;&lt;div&gt;validate login()&lt;/div&gt;&lt;/div&gt;" style="text;html=1;align=left;verticalAlign=middle;resizable=0;points=[];autosize=1;strokeColor=light-dark(#000000,#000000);fillColor=light-dark(#FFB366,#FFB366);fillStyle=solid;" parent="hMOmFAutKiFjXkRdDynN-59" vertex="1">
          <mxGeometry y="280" width="310" height="320" as="geometry" />
        </mxCell>
        <mxCell id="ri72hVkq9TnGS-etohJp-11" style="edgeStyle=orthogonalEdgeStyle;rounded=0;orthogonalLoop=1;jettySize=auto;html=1;exitX=0.5;exitY=1;exitDx=0;exitDy=0;" parent="WIyWlLk6GJQsqaUBKTNV-1" edge="1">
          <mxGeometry relative="1" as="geometry">
            <mxPoint x="360" y="900" as="targetPoint" />
          </mxGeometry>
        </mxCell>
        <mxCell id="ri72hVkq9TnGS-etohJp-10" value="Methods:&#xa;&#xa;Generate Payment ID() &#xa;&#xa;Generate payment date()&#xa;&#xa;Identify payment method()&#xa;&#xa; Validate discount coupon()&#xa;&#xa;Validate card numer()&#xa;&#xa;Validate security code()&#xa;&#xa;Deduct card amount()" style="text;align=left;verticalAlign=top;spacingLeft=4;spacingRight=4;overflow=hidden;rotatable=0;points=[[0,0.5],[1,0.5]];portConstraint=eastwest;fillColor=light-dark(#FFB366,#FFB366);strokeColor=light-dark(#006EAF,#000000);" parent="WIyWlLk6GJQsqaUBKTNV-1" vertex="1">
          <mxGeometry x="400" y="274" width="160" height="242" as="geometry" />
        </mxCell>
        <mxCell id="oq8trVzhFs2xCaBBPb9A-1" value="" style="endArrow=classic;startArrow=classic;html=1;rounded=0;strokeColor=light-dark(#000000,#000000);" parent="WIyWlLk6GJQsqaUBKTNV-1" target="oq8trVzhFs2xCaBBPb9A-0" edge="1">
          <mxGeometry width="50" height="50" relative="1" as="geometry">
            <mxPoint x="-136" y="383" as="sourcePoint" />
            <mxPoint x="230" y="380" as="targetPoint" />
          </mxGeometry>
        </mxCell>
        <mxCell id="oq8trVzhFs2xCaBBPb9A-0" value="&lt;div style=&quot;text-align: left; text-wrap-mode: nowrap;&quot;&gt;Methods:&lt;/div&gt;&lt;div style=&quot;text-align: left; text-wrap-mode: nowrap;&quot;&gt;&amp;nbsp;&lt;/div&gt;&lt;div style=&quot;text-align: left; text-wrap-mode: nowrap;&quot;&gt;Display Name()&lt;/div&gt;&lt;div style=&quot;text-align: left; text-wrap-mode: nowrap;&quot;&gt;&lt;span style=&quot;background-color: transparent; color: light-dark(rgb(0, 0, 0), rgb(255, 255, 255));&quot;&gt;&lt;br&gt;&lt;/span&gt;&lt;/div&gt;&lt;div style=&quot;text-align: left; text-wrap-mode: nowrap;&quot;&gt;&lt;span style=&quot;background-color: transparent; color: light-dark(rgb(0, 0, 0), rgb(255, 255, 255));&quot;&gt;Display Image()&lt;/span&gt;&lt;/div&gt;&lt;div style=&quot;text-align: left; text-wrap-mode: nowrap;&quot;&gt;&lt;br&gt;&lt;/div&gt;&lt;div style=&quot;text-align: left; text-wrap-mode: nowrap;&quot;&gt;Display Price()&lt;/div&gt;&lt;div style=&quot;text-align: left; text-wrap-mode: nowrap;&quot;&gt;&lt;br&gt;&lt;/div&gt;&lt;div style=&quot;text-align: left; text-wrap-mode: nowrap;&quot;&gt;Display Buyer Name()&lt;/div&gt;&lt;div style=&quot;text-align: left; text-wrap-mode: nowrap;&quot;&gt;&lt;br&gt;&lt;/div&gt;&lt;div style=&quot;text-align: left; text-wrap-mode: nowrap;&quot;&gt;Display Description()&lt;/div&gt;&lt;div style=&quot;text-align: left; text-wrap-mode: nowrap;&quot;&gt;&lt;br&gt;&lt;/div&gt;&lt;div style=&quot;text-align: left; text-wrap-mode: nowrap;&quot;&gt;&lt;span style=&quot;background-color: transparent; color: light-dark(rgb(0, 0, 0), rgb(255, 255, 255));&quot;&gt;Display and Calculate Stock()&lt;/span&gt;&lt;/div&gt;&lt;div style=&quot;text-align: left; text-wrap-mode: nowrap;&quot;&gt;&lt;br&gt;&lt;/div&gt;&lt;div style=&quot;text-align: left; text-wrap-mode: nowrap;&quot;&gt;Display Category Name()&lt;/div&gt;&lt;div style=&quot;text-align: left; text-wrap-mode: nowrap;&quot;&gt;&lt;br&gt;&lt;/div&gt;&lt;div style=&quot;text-align: left; text-wrap-mode: nowrap;&quot;&gt;Display Reviews()&lt;/div&gt;" style="text;html=1;align=center;verticalAlign=middle;whiteSpace=wrap;rounded=0;fillColor=light-dark(#FFB366,#FFB366);strokeColor=light-dark(#000000,#000000);" parent="WIyWlLk6GJQsqaUBKTNV-1" vertex="1">
          <mxGeometry x="-340" y="238" width="200" height="290" as="geometry" />
        </mxCell>
        <mxCell id="Yp6SmGtvmsY6EhksloWT-1" value="&lt;p style=&quot;margin:0px;margin-top:4px;text-align:center;&quot;&gt;&lt;i&gt;&amp;lt;&amp;lt;Interface&amp;gt;&amp;gt;&lt;/i&gt;&lt;br&gt;&lt;/p&gt;&lt;p style=&quot;margin:0px;margin-top:4px;text-align:center;&quot;&gt;&lt;b&gt;&lt;i&gt;Registration&lt;/i&gt;&lt;/b&gt;&lt;/p&gt;&lt;hr size=&quot;1&quot; style=&quot;border-style:solid;&quot;&gt;&lt;p style=&quot;margin:0px;margin-left:4px;&quot;&gt;+ Get name&lt;span style=&quot;background-color: transparent; color: light-dark(rgb(0, 0, 0), rgb(237, 237, 237));&quot;&gt;(): String&lt;/span&gt;&lt;/p&gt;&lt;p style=&quot;margin:0px;margin-left:4px;&quot;&gt;&lt;span style=&quot;background-color: transparent; color: light-dark(rgb(0, 0, 0), rgb(237, 237, 237));&quot;&gt;&lt;br&gt;&lt;/span&gt;&lt;/p&gt;&lt;p style=&quot;margin:0px;margin-left:4px;&quot;&gt;+ Get Age(): Integer&lt;/p&gt;&lt;p style=&quot;margin:0px;margin-left:4px;&quot;&gt;&lt;br&gt;&lt;/p&gt;&lt;p style=&quot;margin: 0px 0px 0px 4px;&quot;&gt;+ Get number of phone&lt;span style=&quot;background-color: transparent; color: light-dark(rgb(0, 0, 0), rgb(237, 237, 237));&quot;&gt;(): Integer&lt;/span&gt;&lt;/p&gt;&lt;p style=&quot;margin: 0px 0px 0px 4px;&quot;&gt;&lt;span style=&quot;background-color: transparent; color: light-dark(rgb(0, 0, 0), rgb(237, 237, 237));&quot;&gt;&lt;br&gt;&lt;/span&gt;&lt;/p&gt;&lt;p style=&quot;margin: 0px 0px 0px 4px;&quot;&gt;+ Get Country of residence(): String&lt;/p&gt;&lt;p style=&quot;margin: 0px 0px 0px 4px;&quot;&gt;&lt;br&gt;&lt;/p&gt;&lt;p style=&quot;margin: 0px 0px 0px 4px;&quot;&gt;+ Get Residence Adress&lt;span style=&quot;background-color: transparent; color: light-dark(rgb(0, 0, 0), rgb(237, 237, 237));&quot;&gt;(): String&lt;/span&gt;&lt;/p&gt;&lt;p style=&quot;margin: 0px 0px 0px 4px;&quot;&gt;&lt;span style=&quot;background-color: transparent; color: light-dark(rgb(0, 0, 0), rgb(237, 237, 237));&quot;&gt;&lt;br&gt;&lt;/span&gt;&lt;/p&gt;&lt;p style=&quot;margin: 0px 0px 0px 4px;&quot;&gt;+ Get Email(): String&lt;/p&gt;&lt;p style=&quot;margin: 0px 0px 0px 4px;&quot;&gt;&lt;br&gt;&lt;/p&gt;&lt;p style=&quot;margin: 0px 0px 0px 4px;&quot;&gt;- Get Password(): String&lt;/p&gt;" style="verticalAlign=top;align=left;overflow=fill;html=1;whiteSpace=wrap;fillColor=#fa6800;fontColor=#000000;strokeColor=#C73500;fillStyle=solid;" vertex="1" parent="WIyWlLk6GJQsqaUBKTNV-1">
          <mxGeometry x="230" y="-870" width="200" height="270" as="geometry" />
        </mxCell>
        <mxCell id="Yp6SmGtvmsY6EhksloWT-2" value="" style="endArrow=block;dashed=1;endFill=0;endSize=12;html=1;rounded=0;" edge="1" parent="WIyWlLk6GJQsqaUBKTNV-1">
          <mxGeometry width="160" relative="1" as="geometry">
            <mxPoint x="210" y="-560" as="sourcePoint" />
            <mxPoint x="370" y="-560" as="targetPoint" />
          </mxGeometry>
        </mxCell>
        <mxCell id="Yp6SmGtvmsY6EhksloWT-5" value="" style="endArrow=block;dashed=1;endFill=0;endSize=12;html=1;rounded=0;exitX=0.5;exitY=0;exitDx=0;exitDy=0;entryX=0.5;entryY=1;entryDx=0;entryDy=0;" edge="1" parent="WIyWlLk6GJQsqaUBKTNV-1" source="hMOmFAutKiFjXkRdDynN-59" target="Yp6SmGtvmsY6EhksloWT-1">
          <mxGeometry width="160" relative="1" as="geometry">
            <mxPoint x="150" y="-640" as="sourcePoint" />
            <mxPoint x="310" y="-640" as="targetPoint" />
          </mxGeometry>
        </mxCell>
        <mxCell id="Yp6SmGtvmsY6EhksloWT-6" value="" style="endArrow=block;dashed=1;endFill=0;endSize=12;html=1;rounded=0;exitX=0.5;exitY=0;exitDx=0;exitDy=0;entryX=0.5;entryY=1;entryDx=0;entryDy=0;strokeColor=light-dark(#000000,#FF0000);" edge="1" parent="WIyWlLk6GJQsqaUBKTNV-1" source="hMOmFAutKiFjXkRdDynN-59" target="Yp6SmGtvmsY6EhksloWT-1">
          <mxGeometry width="160" relative="1" as="geometry">
            <mxPoint x="90" y="-560" as="sourcePoint" />
            <mxPoint x="250" y="-560" as="targetPoint" />
          </mxGeometry>
        </mxCell>
      </root>
    </mxGraphModel>
  </diagram>
</mxfile>
